<?xml version="1.0" encoding="UTF-8"?>
<svg width="512" height="512" viewBox="0 0 512 512" xmlns="http://www.w3.org/2000/svg">
  <!-- Background Circle with Gradient -->
  <defs>
    <linearGradient id="bgGradient" x1="0%" y1="0%" x2="100%" y2="100%">
      <stop offset="0%" style="stop-color:#007AFF;stop-opacity:1" />
      <stop offset="100%" style="stop-color:#5856D6;stop-opacity:1" />
    </linearGradient>
    <linearGradient id="branchGradient" x1="0%" y1="0%" x2="100%" y2="0%">
      <stop offset="0%" style="stop-color:#34C759;stop-opacity:1" />
      <stop offset="100%" style="stop-color:#30D158;stop-opacity:1" />
    </linearGradient>
    <!-- Shadow filter -->
    <filter id="shadow" x="-20%" y="-20%" width="140%" height="140%">
      <feDropShadow dx="0" dy="4" stdDeviation="8" flood-color="rgba(0,0,0,0.2)"/>
    </filter>
  </defs>
  
  <!-- Main background circle -->
  <circle cx="256" cy="256" r="240" fill="url(#bgGradient)" filter="url(#shadow)"/>
  
  <!-- Git branch network pattern -->
  <g stroke-width="8" fill="none" stroke="#FFFFFF" stroke-linecap="round" opacity="0.9">
    <!-- Main branch line -->
    <line x1="120" y1="256" x2="392" y2="256"/>
    
    <!-- Branch points (commits) -->
    <circle cx="150" cy="256" r="12" fill="#FFFFFF"/>
    <circle cx="200" cy="256" r="12" fill="#FFFFFF"/>
    <circle cx="280" cy="256" r="12" fill="#FFFFFF"/>
    <circle cx="330" cy="256" r="12" fill="#FFFFFF"/>
    <circle cx="370" cy="256" r="12" fill="#FFFFFF"/>
    
    <!-- Feature branches -->
    <path d="M 200 256 Q 220 220 240 200 Q 260 180 280 200 Q 300 220 280 256" stroke="url(#branchGradient)" stroke-width="6"/>
    <circle cx="240" cy="200" r="8" fill="#34C759"/>
    
    <!-- Another branch -->
    <path d="M 280 256 Q 300 290 320 310 Q 340 330 320 350 Q 300 330 330 256" stroke="url(#branchGradient)" stroke-width="6"/>
    <circle cx="320" cy="310" r="8" fill="#34C759"/>
  </g>
  
  <!-- Speed/Fast element - Lightning bolt style arrows -->
  <g fill="#FFD60A" opacity="0.8">
    <!-- Speed lines -->
    <polygon points="380,200 420,220 400,240 440,260 380,240 400,220"/>
    <polygon points="370,280 410,300 390,320 430,340 370,320 390,300"/>
  </g>
  
  <!-- Center focal point with "Fast" indicator -->
  <circle cx="256" cy="256" r="20" fill="#FFD60A" stroke="#FFFFFF" stroke-width="4"/>
  <circle cx="256" cy="256" r="8" fill="#FFFFFF"/>
</svg>